<?xml version="1.0" encoding="utf-8"?>
<!-- Generator: Adobe Illustrator 18.1.0, SVG Export Plug-In . SVG Version: 6.00 Build 0)  -->
<svg version="1.1" id="Ebene_1" xmlns="http://www.w3.org/2000/svg" xmlns:xlink="http://www.w3.org/1999/xlink" x="0px" y="0px"
	 viewBox="0 0 1000 640" enable-background="new 0 0 1000 640" xml:space="preserve">
<rect fill="#33CC77" width="1000" height="640"/>
<path fill="#FFFFFF" d="M892.7,322.2c-5.8-13.8-23.7-4.4-23.7-4.4l0.1-0.1c-2.1,1-4.2,2-6.5,2.9c-6.1,2.5-12,3.8-17.8,3.8
	c-2,0-4-0.4-5.8-1.1c-1.8-0.8-3.5-2.1-5-3.9c-1.5-1.8-2.6-4.3-3.5-7.4c-0.9-3.1-1.3-6.9-1.3-11.5c0-2.7,0.3-6,1-10
	c0.6-4,1.3-8.1,2.1-12.4c0.8-4.3,1.5-8.3,2.1-12.2c0.6-3.9,1-6.9,1-9.1c0-2.8-0.5-5.3-1.5-7.5c-1-2.2-2.4-4.1-4.1-5.6
	s-3.7-2.7-6-3.5s-4.6-1.2-7.1-1.2c-7,0-13.2,1.9-18.5,5.6c-5.3,3.8-10.1,8.4-14.3,13.8c-4.2,5.5-7.9,11.4-11.1,17.7
	c-3.2,6.3-6,12-8.6,17.1H762c-0.3-6.5-0.4-13.1-0.4-19.8s0-12.4,0-17.1c0-3.9-0.1-7.1-0.3-9.4s-0.7-4-1.6-5.3
	c-0.9-1.2-2.3-2-4.1-2.3c-1.8-0.3-4.4-0.5-7.7-0.5c-2.9,0-5.4,0.2-7.4,0.5c-2,0.3-3.6,1-5,1.9s-2.5,2.3-3.5,3.9
	c-1,1.7-2,3.9-3.1,6.7c-1.7,4.2-3.3,9.5-5,16c-1.7,6.5-3.3,13.6-5,21.4c-1.7,7.8-3.2,15.9-4.7,24.5c-1.3,7.8-2.5,15.5-3.5,23.1
	c-3.4,2.2-6.8,4.2-10.1,6.1c-4.8,2.8-10,5.3-15.5,7.5c-5.5,2.2-10.3,3.3-14.5,3.3c-5,0-9.2-1.4-12.8-4.2c-0.5-0.4-1.1-0.9-1.6-1.3
	c-2.8-3.1-5.8-7.9-7.1-14.9c-1.6-8.9,4.7-26.5,7-32.6c1.7-3.1,3.5-6.4,5.4-9.9c0.1-0.3,0.8-1.6,2.1-4.1c1.3-2.5,2.6-5.5,4-9
	c1.4-3.5,2.7-7.3,3.9-11.4c1.2-4.1,1.8-7.9,1.8-11.5c0-4.7-2.2-8.6-6.7-11.6c-4.5-3-10.3-4.5-17.6-4.5c-7,0-13,1.4-18.1,4.1
	c-5.1,2.7-8.4,5.9-9.9,9.5l-45.6,102l-2.7,0.2l15.7-103.3c0-3.7-1.5-6.7-4.5-8.9c-3-2.2-7.3-3.3-12.9-3.3c-6.6,0-12.3,1.1-17.1,3.2
	s-9.1,5.3-12.9,9.5c-3.8,4.2-7.4,9.5-10.6,15.8c-3.2,6.4-6.6,13.8-10.1,22.3c-3.5,8.5-7.3,18.2-11.5,28.9
	c-4.1,10.8-9,22.6-14.6,35.6l-2.5,0.2l13.4-103.3c0-3.7-1.5-6.7-4.5-8.9c-3-2.2-7.3-3.3-12.9-3.3l-4.6-0.4c-4.7,0-8.8,1.1-12.1,3.4
	c-3.4,2.3-6.3,5.2-8.8,8.7c-2.5,3.5-4.5,7.4-6.1,11.6c-1.5,4-2.7,7.8-3.6,11.5c-5.8-5.2-11.8-10-18.2-14.4
	c-9.2-6.3-19.1-11.3-29.7-15.1c-10.6-3.8-21.9-5.6-34-5.6c-14.1,0-26.9,2.6-38.2,7.7c-11.3,5.2-20.9,12.2-28.7,21.2
	s-13.8,19.5-18,31.7c-4.2,12.2-6.3,25.2-6.3,39.2c0,8.5,0.9,16.9,2.5,25.2c-1.1,0.9-2.2,1.9-3.4,2.8c-3,2.4-5.9,4.6-8.8,6.4
	c-2.9,1.8-5.5,3.3-8,4.5s-4.7,1.7-6.6,1.7c-4.2,0-7.3-2.5-9.3-7.6c-2-5.1-3-11.6-3-19.5c0-4.7,0.3-9.9,0.9-15.5
	c0.6-5.6,1.3-11.3,2.2-17c0.9-5.7,1.9-11.3,3-16.8c1.1-5.5,2.1-10.5,3-15.1c0.9-4.6,1.6-8.5,2.2-11.8c0.6-3.3,0.9-5.7,0.9-7.1
	c0-9.4-1.9-16.8-5.6-22.1c-3.8-5.3-8.8-8-15.2-8c-6.4,0-12.2,1.3-17.4,3.8c-5.2,2.5-9.9,7.3-13.9,14.1c-0.9,1.5-2.2,3.9-4,7.1
	c-1.8,3.2-3.8,6.8-5.9,11c-2.2,4.1-4.5,8.5-7,13c-2.5,4.5-4.8,8.8-7,12.9c-2.2,4.1-4.1,7.7-5.7,10.8c-1.7,3.1-2.9,5.4-3.6,6.8h-3.8
	c0-0.9,0.2-2.6,0.6-5.3s0.9-5.7,1.4-9.2s1.2-7.3,1.8-11.5c0.6-4.1,1.2-8.1,1.8-12c0.6-3.9,1.1-7.4,1.4-10.7s0.6-5.8,0.6-7.7
	c0-7-1.3-12.6-4-16.8c-2.7-4.2-7.4-6.3-14.3-6.3c-6.9,0-12.3,2-16.3,5.9c-4,3.9-6.7,8.8-8.1,14.7c-1.8,7.5-3.6,16.5-5.5,27.1
	c-1.9,10.6-3.6,21.5-5.2,32.9c-1.5,11.4-2.8,22.6-3.8,33.6c-1,11-1.5,20.7-1.5,29.1c0,5.1,0.3,10,0.9,14.8s1.7,9,3.4,12.8
	c1.7,3.8,4.2,6.7,7.4,9c3.2,2.2,7.4,3.3,12.6,3.3c4.2,0,7.9-1,11.1-2.9c3.2-1.9,6-5.5,8.6-10.7l50-99.3h3.1
	c-1.5,10.2-2.8,19.7-3.8,28.5c-1,8.8-1.5,17.1-1.5,24.7c0,19.5,2.4,34.3,7.2,44.4c4.8,10.1,10.7,15.2,17.7,15.2c7,0,13.7-1,20-3
	c6.4-2,12.5-4.5,18.3-7.6c5.9-3.1,11.5-6.6,16.9-10.6c2.6-1.9,5-3.7,7.6-5.6c0.1,0.1,0.1,0.2,0.2,0.3c5.1,7.9,11.6,14.3,19.6,19.2
	c8,4.9,17.5,7.4,28.7,7.4c7.8,0,15.1-1.3,22-4c6.9-2.7,13.2-6.3,19-10.9c5.8-4.6,10.9-10,15.5-16.2c4.5-6.2,8.3-12.9,11.5-20
	c3.1-7.1,5.5-14.5,7.2-22.1c1.7-7.6,2.5-15.2,2.5-22.7c0-7.5-0.9-15.4-2.8-23.6c-1.8-8.2-4.6-16-8.3-23.4l1.5-2.1
	c4.6,3.1,10.1,6.8,16.4,11.4c6.4,4.5,12.8,9.3,19.4,14.4c0.8,0.6,1.5,1.2,2.2,1.8c0,0.1,0,0.3,0,0.4c-0.3,3.6-0.4,7-0.6,10.1
	c-0.1,3.1-0.2,6.2-0.2,9.4c0,3.1,0,6.7,0,10.8c0,28.6,2.3,50.3,7,64.9c4.6,14.6,11.9,22,21.9,22c5.9,0,11.8-2.3,17.9-7
	c6.1-4.6,12-11.1,17.8-19.5c5.7-8.3,11.1-18.3,16.1-29.8c5-11.5,9.4-24.2,13.1-38.1l5.5,1c0,6.9,0.1,13.9,0.2,21.2
	c0.1,7.3,0.3,14.3,0.7,21.2c0.3,6.9,0.8,13.4,1.3,19.6s1.3,11.6,2.2,16.2c0.9,4.6,2,8.3,3.3,11.1c1.3,2.7,2.9,4.1,4.7,4.1
	c5.1,0,10.2-1.7,15.3-5.2c5.1-3.4,10.1-8.2,15.1-14.3s9.8-13.4,14.5-21.9c3.1-5.5,6.1-11.5,9-17.7c0.4,1.2,0.9,2.4,1.5,3.6
	c6,12.7,22.6,21.9,22.5,22l0.3-0.5c3.1,1.7,6.5,3.1,10.1,4c5.8,1.5,11.9,2.3,18.4,2.3c8.3,0,16.9-1.6,25.9-4.8
	c5-1.8,10-3.9,14.8-6.4c0,4.7,0.3,9.3,0.8,13.8c0.6,4.8,1.7,9,3.4,12.8c1.7,3.8,4.2,6.7,7.4,9c3.2,2.2,7.4,3.3,12.6,3.3
	c2.3,0,4.4-0.4,6.3-1.2c1.9-0.8,3.7-2.3,5.3-4.3c1.7-2,3.3-4.7,4.9-7.9c1.6-3.2,3.3-7.4,5.1-12.3L787,301h3.1c1,8,2.4,15.9,4,23.8
	c1.7,7.8,4.2,14.9,7.6,21.2c3.4,6.3,8.1,11.4,13.9,15.3c5.9,3.9,13.6,5.8,23.1,5.8c5.3,0,10.6-0.8,15.8-2.4s10.1-3.6,14.9-5.9
	c1.1-0.6,2.2-1.2,3.3-1.7l0-0.1C872.7,357,900.1,339.9,892.7,322.2z M380.8,340.1c-1.8,8.1-4.3,15.5-7.4,22.1s-6.6,12.2-10.7,16.6
	c-4.1,4.4-8.3,6.6-12.6,6.6c-5,0-9.2-1.1-12.8-3.2c-3.6-2.1-6.4-4.9-8.6-8.4c-2.2-3.5-3.8-7.6-4.8-12.3c-1-4.7-1.5-9.7-1.5-15.1
	c0-7.8,1-15.8,3.1-24.2c2-8.4,4.8-16.1,8.4-23c3.6-6.9,7.7-12.6,12.4-17.1c4.7-4.5,9.7-6.7,14.9-6.7c3.9,0,7.3,1.1,10.1,3.2
	c2.8,2.2,5.1,5.1,6.9,8.8c1.8,3.7,3.1,8.1,4,13.1c0.9,5,1.3,10.5,1.3,16.3C383.6,324.3,382.6,332,380.8,340.1z"/>
</svg>
